#extradata 0:       28, 0x62a0074d
#tb 0: 1/90000
#media_type 0: video
#codec_id 0: lcevc
#dimensions 0: 640x360
#sar 0: 0/1
0,      -6000,          0,     3000,     1965, 0xb8dab7cb, S=1, MPEGTS Stream ID,        1, 0x00e000e0
0,      -3000,      15000,     3000,      187, 0xd07d53eb, F=0x0, S=1, MPEGTS Stream ID,        1, 0x00e000e0
0,          0,       6000,     3000,       29, 0x909a0a04, F=0x0, S=1, MPEGTS Stream ID,        1, 0x00e000e0
0,       3000,       3000,     3000,       22, 0x4fce0846, F=0x0, S=1, MPEGTS Stream ID,        1, 0x00e000e0
0,       6000,       9000,     3000,      152, 0x1f4345ba, F=0x0, S=1, MPEGTS Stream ID,        1, 0x00e000e0
0,       9000,      12000,     3000,      479, 0xf21fd21a, F=0x0, S=1, MPEGTS Stream ID,        1, 0x00e000e0
0,      12000,      30000,     3000,      497, 0xccfbcea5, F=0x0, S=1, MPEGTS Stream ID,        1, 0x00e000e0
0,      15000,      21000,     3000,      265, 0x83bc7f47, F=0x0, S=1, MPEGTS Stream ID,        1, 0x00e000e0
0,      18000,      18000,     3000,      285, 0x368f72bc, F=0x0, S=1, MPEGTS Stream ID,        1, 0x00e000e0
0,      21000,      24000,     3000,      226, 0x571257dd, F=0x0, S=1, MPEGTS Stream ID,        1, 0x00e000e0
0,      24000,      27000,     3000,      243, 0xa96170fa, F=0x0, S=1, MPEGTS Stream ID,        1, 0x00e000e0
0,      27000,      45000,     3000,      358, 0x45ffa1fb, F=0x0, S=1, MPEGTS Stream ID,        1, 0x00e000e0
0,      30000,      36000,     3000,      167, 0x1af243de, F=0x0, S=1, MPEGTS Stream ID,        1, 0x00e000e0
0,      33000,      33000,     3000,      210, 0x10ce596d, F=0x0, S=1, MPEGTS Stream ID,        1, 0x00e000e0
0,      36000,      39000,     3000,      193, 0x997b4e2d, F=0x0, S=1, MPEGTS Stream ID,        1, 0x00e000e0
0,      39000,      42000,     3000,      167, 0xe1404217, F=0x0, S=1, MPEGTS Stream ID,        1, 0x00e000e0
0,      42000,      60000,     3000,      302, 0x7462828a, F=0x0, S=1, MPEGTS Stream ID,        1, 0x00e000e0
0,      45000,      51000,     3000,      978, 0xf712deca, F=0x0, S=1, MPEGTS Stream ID,        1, 0x00e000e0
0,      48000,      48000,     3000,      170, 0xeb414130, F=0x0, S=1, MPEGTS Stream ID,        1, 0x00e000e0
0,      51000,      54000,     3000,       79, 0x9d8616dc, F=0x0, S=1, MPEGTS Stream ID,        1, 0x00e000e0
0,      54000,      57000,     3000,      185, 0xb7954514, F=0x0, S=1, MPEGTS Stream ID,        1, 0x00e000e0
0,      57000,      75000,     3000,      230, 0x974b6ff8, F=0x0, S=1, MPEGTS Stream ID,        1, 0x00e000e0
0,      60000,      66000,     3000,      264, 0xa27483da, F=0x0, S=1, MPEGTS Stream ID,        1, 0x00e000e0
0,      63000,      63000,     3000,      175, 0xa678448a, F=0x0, S=1, MPEGTS Stream ID,        1, 0x00e000e0
0,      66000,      69000,     3000,      160, 0x7d423c5c, F=0x0, S=1, MPEGTS Stream ID,        1, 0x00e000e0
0,      69000,      72000,     3000,      302, 0x12788d97, F=0x0, S=1, MPEGTS Stream ID,        1, 0x00e000e0
0,      72000,      87000,     3000,      122, 0xe5bf2b1f, F=0x0, S=1, MPEGTS Stream ID,        1, 0x00e000e0
0,      75000,      81000,     3000,      175, 0x17244a4e, F=0x0, S=1, MPEGTS Stream ID,        1, 0x00e000e0
0,      78000,      78000,     3000,      131, 0x1c0d2a8a, F=0x0, S=1, MPEGTS Stream ID,        1, 0x00e000e0
0,      81000,      84000,     3000,      391, 0xe4e0b1f6, F=0x0, S=1, MPEGTS Stream ID,        1, 0x00e000e0
[PROGRAM]
[STREAM]
index=0
codec_name=h264
id=0x100
[/STREAM]
[STREAM]
index=1
codec_name=lcevc
id=0x101
[/STREAM]
[/PROGRAM]
[STREAM_GROUP]
index=0
id=0xce
nb_streams=2
type=LCEVC (Split video and enhancement)
[STREAM]
index=0
codec_name=h264
id=0x100
[/STREAM]
[STREAM]
index=1
codec_name=lcevc
id=0x101
[/STREAM]
[/STREAM_GROUP]
[STREAM]
index=0
codec_name=h264
id=0x100
[/STREAM]
[STREAM]
index=1
codec_name=lcevc
id=0x101
[/STREAM]
